<svg width="32" height="32" viewBox="0 0 32 32" fill="none" xmlns="http://www.w3.org/2000/svg">
<circle opacity="0.5" cx="16" cy="16" r="16" fill="white"/>
<path d="M9.6928 20.8928C9.30227 21.2833 9.30227 21.9165 9.6928 22.307C10.0833 22.6975 10.7165 22.6975 11.107 22.307L9.6928 20.8928ZM22.5999 10.3999C22.5999 9.84762 22.1522 9.3999 21.5999 9.3999H12.5999C12.0476 9.3999 11.5999 9.84762 11.5999 10.3999C11.5999 10.9522 12.0476 11.3999 12.5999 11.3999H20.5999V19.3999C20.5999 19.9522 21.0476 20.3999 21.5999 20.3999C22.1522 20.3999 22.5999 19.9522 22.5999 19.3999V10.3999ZM11.107 22.307L22.307 11.107L20.8928 9.6928L9.6928 20.8928L11.107 22.307Z" fill="white"/>
</svg>
