<svg width="211" height="53" viewBox="0 0 211 53" fill="none" xmlns="http://www.w3.org/2000/svg">
<path d="M11.7264 0C18.1993 0 23.4528 5.30913 23.4528 11.8505C23.4528 18.3918 18.1993 23.7009 11.7264 23.7009C5.25355 23.7009 0 18.3918 0 11.8505C0 5.30913 5.25355 0 11.7264 0Z" fill="#438EFF"/>
<path d="M35.1792 0C41.652 0 46.9056 5.30913 46.9056 11.8505C46.9056 18.3918 41.652 23.7009 35.1792 23.7009C28.7063 23.7009 23.4528 18.3918 23.4528 11.8505C23.4528 5.30913 28.7063 0 35.1792 0Z" fill="#438EFF"/>
<path d="M11.7264 23.7009C18.1993 23.7009 23.4528 29.0101 23.4528 35.5514C23.4528 42.0927 18.1993 47.4018 11.7264 47.4018C5.25355 47.4018 0 42.0927 0 35.5514C0 29.0101 5.25355 23.7009 11.7264 23.7009" fill="#438EFF"/>
<path d="M35.1792 23.7009C28.7063 23.7009 23.4528 29.0101 23.4528 35.5514C23.4528 42.0927 28.7063 47.4018 35.1792 47.4018H46.9056V35.5514C46.9056 29.0101 41.652 23.7009 35.1792 23.7009M35.1792 25.8763C40.4628 25.8763 44.753 30.2118 44.753 35.5514V45.2265H35.1792C29.8955 45.2265 25.6054 40.8909 25.6054 35.5514C25.6054 30.2118 29.8955 25.8763 35.1792 25.8763Z" fill="#438EFF"/>
<path d="M79.9284 7.10062L76.0791 21.3019H72.4669L69.4405 9.5692L66.3861 21.3019H62.7879L58.9386 7.10062H61.6722L64.6149 18.8333L67.6135 7.10062H71.2396L74.2381 18.8333L77.1809 7.10062H79.9284Z" fill="#3D3D3E"/>
<path d="M85.3118 13.5494V21.3019H82.4667V0H85.3118V9.3473C85.7488 8.53369 86.3439 7.90961 87.097 7.47507C87.8594 7.04053 88.7148 6.82325 89.6632 6.82325C91.2903 6.82325 92.6013 7.34563 93.5962 8.39038C94.5911 9.43514 95.0885 10.9653 95.0885 12.9808V21.3019H92.2294V13.5494C92.2294 12.1626 91.9272 11.1132 91.3229 10.4013C90.7185 9.68014 89.8678 9.31957 88.7706 9.31957C87.6735 9.31957 86.8227 9.68014 86.2184 10.4013C85.614 11.1132 85.3118 12.1626 85.3118 13.5494Z" fill="#3D3D3E"/>
<path d="M108.115 21.3019V18.9165C107.659 19.8133 107.008 20.4836 106.162 20.9274C105.316 21.362 104.354 21.5792 103.275 21.5792C102.392 21.5792 101.592 21.4452 100.876 21.177C100.17 20.9089 99.584 20.4651 99.1191 19.8457C98.6542 19.217 98.4217 18.4542 98.4217 17.5574C98.4217 16.7253 98.5984 16.0272 98.9517 15.4633C99.305 14.89 99.7653 14.4647 100.332 14.1874C100.9 13.91 101.523 13.6927 102.201 13.5356C102.889 13.3691 103.573 13.2443 104.251 13.1611C104.94 13.0687 105.567 12.967 106.134 12.856C106.701 12.7358 107.162 12.5463 107.515 12.2874C107.868 12.0285 108.045 11.6818 108.045 11.2473C108.045 10.5723 107.757 10.0453 107.18 9.66628C106.604 9.27796 105.865 9.0838 104.963 9.0838C104.005 9.0838 103.243 9.32419 102.675 9.80496C102.108 10.2857 101.825 10.9745 101.825 11.8714H98.8541C98.8541 11.1594 98.9657 10.5169 99.1888 9.94364C99.412 9.37042 99.7141 8.89427 100.095 8.5152C100.477 8.12688 100.928 7.80791 101.448 7.55828C101.978 7.2994 102.531 7.11449 103.108 7.00354C103.694 6.88335 104.312 6.82325 104.963 6.82325C105.762 6.82325 106.506 6.90646 107.194 7.07288C107.882 7.23931 108.51 7.49818 109.077 7.84952C109.644 8.1916 110.091 8.66313 110.416 9.26409C110.741 9.86506 110.904 10.5631 110.904 11.3582V21.3019H108.115ZM101.337 17.3771C101.337 17.9688 101.564 18.4219 102.02 18.7362C102.485 19.0413 103.094 19.1939 103.847 19.1939C105.028 19.1939 106.032 18.8657 106.86 18.2092C107.696 17.5435 108.115 16.6236 108.115 15.4494V14.4231C107.696 14.6265 107.157 14.8022 106.497 14.9501C105.837 15.0888 105.228 15.2044 104.67 15.2968C104.112 15.3801 103.568 15.4956 103.038 15.6436C102.517 15.7822 102.104 15.9949 101.797 16.2815C101.49 16.5589 101.337 16.9241 101.337 17.3771Z" fill="#3D3D3E"/>
<path d="M118.533 16.4479C118.533 17.3263 118.728 17.9688 119.119 18.3756C119.509 18.7732 120.123 18.972 120.96 18.972C121.592 18.972 122.154 18.8888 122.647 18.7223V21.2464C121.959 21.4683 121.215 21.5792 120.416 21.5792C119.69 21.5792 119.054 21.5006 118.505 21.3435C117.956 21.1863 117.464 20.9274 117.027 20.5668C116.59 20.197 116.255 19.6839 116.023 19.0274C115.79 18.3618 115.674 17.5574 115.674 16.6143V9.59693H113.331V7.10062H115.674V2.8985H118.533V7.10062H122.647V9.59693H118.533V16.4479Z" fill="#3D3D3E"/>
<path d="M142.73 12.7589C142.591 11.7142 142.14 10.9006 141.378 10.3181C140.625 9.72637 139.713 9.43051 138.644 9.43051C137.417 9.43051 136.399 9.8743 135.59 10.7619C134.79 11.6402 134.39 12.7867 134.39 14.2012C134.39 15.6158 134.79 16.7669 135.59 17.6545C136.399 18.5328 137.417 18.972 138.644 18.972C139.732 18.972 140.657 18.653 141.419 18.0151C142.191 17.3771 142.647 16.4849 142.786 15.3385H145.757C145.645 17.1968 144.92 18.7039 143.581 19.8596C142.252 21.006 140.606 21.5792 138.644 21.5792C136.589 21.5792 134.888 20.8904 133.54 19.5128C132.201 18.126 131.531 16.3555 131.531 14.2012C131.531 12.047 132.201 10.2811 133.54 8.90351C134.888 7.51667 136.589 6.82325 138.644 6.82325C140.541 6.82325 142.145 7.37337 143.456 8.47359C144.776 9.56457 145.524 10.993 145.701 12.7589H142.73Z" fill="#3D3D3E"/>
<path d="M150.359 4.00797C149.82 4.00797 149.369 3.82768 149.006 3.4671C148.653 3.10652 148.477 2.65349 148.477 2.108C148.477 1.56251 148.653 1.11409 149.006 0.762762C149.369 0.402184 149.82 0.221894 150.359 0.221894C150.917 0.221894 151.368 0.402184 151.712 0.762762C152.065 1.11409 152.242 1.56251 152.242 2.108C152.242 2.65349 152.065 3.10652 151.712 3.4671C151.359 3.82768 150.908 4.00797 150.359 4.00797ZM151.782 21.3019H148.937V7.10062H151.782V21.3019Z" fill="#3D3D3E"/>
<path d="M159.676 16.4479C159.676 17.3263 159.871 17.9688 160.261 18.3756C160.652 18.7732 161.266 18.972 162.102 18.972C162.735 18.972 163.297 18.8888 163.79 18.7223V21.2464C163.102 21.4683 162.358 21.5792 161.559 21.5792C160.833 21.5792 160.196 21.5006 159.648 21.3435C159.099 21.1863 158.606 20.9274 158.169 20.5668C157.732 20.197 157.398 19.6839 157.165 19.0274C156.933 18.3618 156.817 17.5574 156.817 16.6143V9.59693H154.474V7.10062H156.817V2.8985H159.676V7.10062H163.79V9.59693H159.676V16.4479Z" fill="#3D3D3E"/>
<path d="M173.539 22.8967C173.278 23.6364 173.023 24.2697 172.772 24.7967C172.53 25.3329 172.232 25.8553 171.879 26.3638C171.535 26.8723 171.159 27.2791 170.749 27.5843C170.35 27.8986 169.866 28.1482 169.299 28.3331C168.741 28.5273 168.118 28.6244 167.43 28.6244C166.668 28.6244 165.952 28.5227 165.282 28.3193V25.823C165.952 26.0264 166.584 26.1281 167.179 26.1281C168.053 26.1281 168.764 25.8692 169.313 25.3514C169.871 24.8429 170.387 24.0155 170.861 22.869L165.199 7.10062H168.058L172.2 18.9997L176.314 7.10062H179.173L173.539 22.8967Z" fill="#3D3D3E"/>
<path d="M79.9284 32.6325L76.0791 46.8337H72.4669L69.4405 35.1011L66.3861 46.8337H62.7879L58.9386 32.6325H61.6722L64.6149 44.3652L67.6135 32.6325H71.2396L74.2381 44.3652L77.1809 32.6325H79.9284Z" fill="#3D3D3E"/>
<path d="M91.2671 46.8337V44.4484C90.8115 45.3452 90.1606 46.0155 89.3145 46.4593C88.4684 46.8938 87.5061 47.1111 86.4276 47.1111C85.5443 47.1111 84.7447 46.9771 84.0287 46.7089C83.3221 46.4408 82.7363 45.997 82.2715 45.3776C81.8066 44.7489 81.5741 43.9861 81.5741 43.0893C81.5741 42.2572 81.7508 41.5591 82.1041 40.9951C82.4574 40.4219 82.9177 39.9966 83.4848 39.7193C84.052 39.4419 84.6749 39.2246 85.3537 39.0674C86.0417 38.901 86.7251 38.7762 87.4038 38.693C88.0919 38.6005 88.7195 38.4988 89.2867 38.3879C89.8538 38.2677 90.3141 38.0782 90.6674 37.8193C91.0207 37.5604 91.1974 37.2137 91.1974 36.7792C91.1974 36.1042 90.9091 35.5772 90.3327 35.1982C89.7562 34.8098 89.017 34.6157 88.1151 34.6157C87.1575 34.6157 86.395 34.8561 85.8279 35.3368C85.2607 35.8176 84.9771 36.5064 84.9771 37.4032H82.0065C82.0065 36.6913 82.118 36.0488 82.3412 35.4755C82.5643 34.9023 82.8665 34.4261 83.2477 34.0471C83.6289 33.6588 84.0799 33.3398 84.6006 33.0902C85.1305 32.8313 85.6837 32.6464 86.2602 32.5354C86.846 32.4152 87.4643 32.3551 88.1151 32.3551C88.9147 32.3551 89.6586 32.4383 90.3466 32.6048C91.0346 32.7712 91.6622 33.0301 92.2294 33.3814C92.7966 33.7235 93.2429 34.195 93.5683 34.796C93.8937 35.3969 94.0564 36.095 94.0564 36.8901V46.8337H91.2671ZM84.489 42.909C84.489 43.5007 84.7168 43.9537 85.1724 44.2681C85.6373 44.5732 86.2463 44.7257 86.9994 44.7257C88.1802 44.7257 89.1844 44.3975 90.0119 43.7411C90.8487 43.0754 91.2671 42.1555 91.2671 40.9813V39.955C90.8487 40.1584 90.3094 40.3341 89.6493 40.482C88.9891 40.6207 88.3801 40.7363 87.8222 40.8287C87.2644 40.9119 86.7205 41.0275 86.1905 41.1754C85.6698 41.3141 85.2561 41.5268 84.9492 41.8134C84.6424 42.0908 84.489 42.456 84.489 42.909Z" fill="#3D3D3E"/>
<path d="M100.876 39.0813V46.8337H98.0312V32.6325H100.876V34.8792C101.313 34.0656 101.908 33.4415 102.662 33.0069C103.424 32.5724 104.279 32.3551 105.228 32.3551C106.855 32.3551 108.166 32.8775 109.161 33.9223C110.156 34.967 110.653 36.4972 110.653 38.5127V46.8337H107.794V39.0813C107.794 37.6945 107.492 36.6451 106.887 35.9332C106.283 35.212 105.432 34.8514 104.335 34.8514C103.238 34.8514 102.387 35.212 101.783 35.9332C101.179 36.6451 100.876 37.6945 100.876 39.0813Z" fill="#3D3D3E"/>
<path d="M118.393 41.9798C118.393 42.8581 118.589 43.5007 118.979 43.9075C119.37 44.3051 119.983 44.5039 120.82 44.5039C121.452 44.5039 122.015 44.4206 122.508 44.2542V46.7783C121.82 47.0002 121.076 47.1111 120.276 47.1111C119.551 47.1111 118.914 47.0325 118.366 46.8754C117.817 46.7182 117.324 46.4593 116.887 46.0987C116.45 45.7289 116.115 45.2158 115.883 44.5593C115.651 43.8936 115.534 43.0893 115.534 42.1462V35.1288H113.191V32.6325H115.534V28.4304H118.393V32.6325H122.508V35.1288H118.393V41.9798Z" fill="#3D3D3E"/>
<path d="M136.887 42.8258C136.887 44.1387 136.357 45.1834 135.297 45.96C134.237 46.7274 132.861 47.1111 131.169 47.1111C129.365 47.1111 127.887 46.6812 126.734 45.8214C125.581 44.9523 125.004 43.7642 125.004 42.2572H127.975C127.975 43.0985 128.268 43.7457 128.853 44.1988C129.449 44.6518 130.22 44.8783 131.169 44.8783C132.052 44.8783 132.735 44.7119 133.219 44.379C133.702 44.0462 133.944 43.5654 133.944 42.9367C133.944 42.5299 133.819 42.1878 133.567 41.9105C133.326 41.6331 133 41.4297 132.591 41.3003C132.191 41.1616 131.731 41.0321 131.21 40.9119C130.69 40.7825 130.16 40.6762 129.621 40.593C129.081 40.5005 128.551 40.3572 128.031 40.163C127.51 39.9596 127.045 39.7239 126.636 39.4558C126.236 39.1876 125.911 38.8039 125.66 38.3047C125.418 37.8054 125.297 37.2137 125.297 36.5295C125.297 35.2629 125.813 34.2505 126.845 33.4923C127.877 32.7342 129.179 32.3551 130.75 32.3551C132.415 32.3551 133.805 32.7989 134.92 33.6865C136.045 34.5741 136.608 35.6697 136.608 36.9733H133.637C133.637 36.2984 133.363 35.739 132.814 35.2952C132.266 34.8422 131.578 34.6157 130.75 34.6157C129.969 34.6157 129.342 34.7729 128.867 35.0872C128.403 35.4016 128.17 35.8407 128.17 36.4047C128.17 36.7745 128.296 37.0889 128.547 37.3478C128.798 37.6066 129.128 37.8008 129.537 37.9302C129.946 38.0504 130.411 38.1706 130.932 38.2908C131.452 38.411 131.982 38.5219 132.521 38.6237C133.07 38.7161 133.605 38.8687 134.125 39.0813C134.646 39.2847 135.111 39.5297 135.52 39.8163C135.929 40.103 136.259 40.5051 136.51 41.0229C136.761 41.5314 136.887 42.1324 136.887 42.8258Z" fill="#3D3D3E"/>
</svg>
